# xmcd
#
# Track frame offsets: 
#        150
#        15569
#        31441
#        46254
#        62433
#        78295
#        93550
#        108902
#        125871
#        142781
#        157815
#        175078
#        193945
#        209850
#        226606
#        240950
#        257191
#
# Disc length: 3657 seconds
#
# Revision: 5
# Processed by: cddbd v1.5.2PL0 Copyright (c) Steve Scherf et al.
# Submitted via: ExactAudioCopyFreeDBPlugin 1.0
#
DISCID=d90e4711
DTITLE=Britney Spears - The Singles Collection
DYEAR=2009
DGENRE=Pop
TTITLE0=3
TTITLE1=Baby One More Time
TTITLE2=(You Drive Me) Crazy (The Stop Remix!)
TTITLE3=Born To Make You Happy
TTITLE4=Oops!... I Did It Again
TTITLE5=Stronger
TTITLE6=I'm A Slave 4 U
TTITLE7=Britney Spears (feat. Pharrell Williams) - Boys (The Co-Ed Rem
TTITLE7=ix)
TTITLE8=Britney Spears (feat. Madonna) - Me Against The Music
TTITLE9=Toxic
TTITLE10=Everytime
TTITLE11=Gimme More
TTITLE12=Piece Of Me
TTITLE13=Womanizer
TTITLE14=Circus
TTITLE15=If U Seek Amy
TTITLE16=Radar
EXTD=
EXTT0=
EXTT1=
EXTT2=
EXTT3=
EXTT4=
EXTT5=
EXTT6=
EXTT7=
EXTT8=
EXTT9=
EXTT10=
EXTT11=
EXTT12=
EXTT13=
EXTT14=
EXTT15=
EXTT16=
PLAYORDER=
